<mxfile host="app.diagrams.net" agent="Mozilla/5.0 (X11; Linux x86_64) AppleWebKit/537.36 (KHTML, like Gecko) Chrome/127.0.0.0 Safari/537.36" version="24.8.3">
  <diagram name="PÃ¡gina-1" id="Keg62D5gHDj6_HqwE0r5">
    <mxGraphModel>
      <root>
        <mxCell id="0" />
        <mxCell id="1" parent="0" />
        <mxCell id="2" value="I2C Bus" style="whiteSpace=wrap;strokeWidth=2;verticalAlign=top;" vertex="1" parent="1">
          <mxGeometry x="8" y="8" width="1053" height="346" as="geometry" />
        </mxCell>
        <mxCell id="3" value="Maestro" style="ellipse;aspect=fixed;strokeWidth=2;whiteSpace=wrap;" vertex="1" parent="2">
          <mxGeometry x="481" y="46" width="73" height="73" as="geometry" />
        </mxCell>
        <mxCell id="4" value="Esclavo 1" style="ellipse;aspect=fixed;strokeWidth=2;whiteSpace=wrap;" vertex="1" parent="2">
          <mxGeometry x="141" y="232" width="84" height="84" as="geometry" />
        </mxCell>
        <mxCell id="5" value="Esclavo 2" style="ellipse;aspect=fixed;strokeWidth=2;whiteSpace=wrap;" vertex="1" parent="2">
          <mxGeometry x="475" y="232" width="84" height="84" as="geometry" />
        </mxCell>
        <mxCell id="6" value="Esclavo 3" style="ellipse;aspect=fixed;strokeWidth=2;whiteSpace=wrap;" vertex="1" parent="2">
          <mxGeometry x="851" y="232" width="84" height="84" as="geometry" />
        </mxCell>
        <mxCell id="7" value="Starts communication" style="curved=1;startArrow=none;endArrow=block;exitX=0;exitY=0.61;entryX=0.11;entryY=0;" edge="1" parent="2" source="3" target="4">
          <mxGeometry relative="1" as="geometry">
            <Array as="points">
              <mxPoint x="107" y="175" />
            </Array>
          </mxGeometry>
        </mxCell>
        <mxCell id="8" value="Requests data exchange" style="curved=1;dashed=1;dashPattern=2 3;startArrow=none;endArrow=block;exitX=0;exitY=0.98;entryX=0.02;entryY=0;" edge="1" parent="2" source="3" target="5">
          <mxGeometry relative="1" as="geometry">
            <Array as="points">
              <mxPoint x="422" y="175" />
            </Array>
          </mxGeometry>
        </mxCell>
        <mxCell id="9" value="Sends control information" style="curved=1;dashed=1;dashPattern=2 3;startArrow=none;endArrow=block;exitX=1;exitY=0.65;entryX=0.06;entryY=0;" edge="1" parent="2" source="3" target="6">
          <mxGeometry relative="1" as="geometry">
            <Array as="points">
              <mxPoint x="806" y="175" />
            </Array>
          </mxGeometry>
        </mxCell>
        <mxCell id="10" value="Receives data" style="curved=1;startArrow=none;endArrow=block;exitX=0.88;exitY=0;entryX=0;entryY=0.67;" edge="1" parent="2" source="4" target="3">
          <mxGeometry relative="1" as="geometry">
            <Array as="points">
              <mxPoint x="259" y="175" />
            </Array>
          </mxGeometry>
        </mxCell>
        <mxCell id="11" value="Sends requested data" style="curved=1;startArrow=none;endArrow=block;exitX=0.99;exitY=0;entryX=1;entryY=0.98;" edge="1" parent="2" source="5" target="3">
          <mxGeometry relative="1" as="geometry">
            <Array as="points">
              <mxPoint x="613" y="175" />
            </Array>
          </mxGeometry>
        </mxCell>
        <mxCell id="12" value="Executes control commands" style="curved=1;startArrow=none;endArrow=block;exitX=0.94;exitY=0;entryX=1;entryY=0.59;" edge="1" parent="2" source="6" target="3">
          <mxGeometry relative="1" as="geometry">
            <Array as="points">
              <mxPoint x="980" y="175" />
            </Array>
          </mxGeometry>
        </mxCell>
      </root>
    </mxGraphModel>
  </diagram>
</mxfile>
